<?xml version="1.0" standalone="no"?>
<!DOCTYPE svg PUBLIC "-//W3C//DTD SVG 20010904//EN"
 "http://www.w3.org/TR/2001/REC-SVG-20010904/DTD/svg10.dtd">
<svg version="1.0" xmlns="http://www.w3.org/2000/svg"
 width="512.000000pt" height="512.000000pt" viewBox="0 0 512.000000 512.000000"
 preserveAspectRatio="xMidYMid meet">

<g transform="translate(0.000000,512.000000) scale(0.100000,-0.100000)"
fill="#000000" stroke="none">
<path d="M2485 5111 c-83 -22 -164 -89 -204 -168 -45 -90 -35 -220 23 -306
l25 -36 -432 -565 -432 -565 -625 -3 -625 -3 -48 -24 c-65 -32 -133 -110 -152
-175 -13 -46 -15 -240 -13 -1552 l3 -1499 21 -45 c27 -57 87 -117 144 -144
l45 -21 2345 0 2345 0 46 21 c57 27 115 85 143 144 21 44 21 57 24 700 2 487
0 661 -9 677 -18 33 -64 46 -100 28 -16 -9 -30 -17 -31 -18 -1 -1 -5 -298 -8
-659 -5 -644 -5 -657 -26 -685 -11 -15 -36 -36 -55 -45 -32 -17 -164 -18
-2329 -18 -2165 0 -2297 1 -2329 18 -19 9 -44 30 -55 45 -21 28 -21 29 -24
1510 -2 1396 -1 1484 15 1516 10 19 31 44 46 55 28 21 40 21 578 24 302 1 549
0 549 -3 0 -3 -32 -47 -71 -98 -46 -58 -78 -91 -88 -89 -9 1 -44 3 -78 4 -77
1 -138 -27 -191 -87 -119 -135 -62 -352 107 -410 214 -73 409 138 320 346
l-22 49 74 97 c41 54 91 119 112 145 l37 48 438 0 439 0 21 23 c29 31 28 72
-3 102 l-24 25 -376 0 c-206 0 -375 2 -375 5 0 3 178 238 396 523 369 481 398
517 423 512 14 -2 51 -4 81 -4 30 0 67 2 81 4 25 5 54 -30 423 -513 218 -284
396 -519 396 -522 0 -3 -169 -5 -375 -5 l-376 0 -24 -25 c-32 -31 -33 -74 -2
-103 23 -22 25 -22 460 -22 l437 0 37 -48 c21 -26 71 -91 112 -145 l74 -97
-22 -49 c-89 -208 106 -419 320 -346 131 45 199 187 157 327 -15 52 -78 121
-134 148 -42 21 -128 29 -185 18 -10 -2 -42 30 -88 89 -39 51 -71 95 -71 98 0
3 247 4 549 3 538 -3 550 -3 578 -24 65 -48 63 -17 63 -776 0 -675 0 -688 20
-708 28 -28 81 -26 108 3 l22 23 0 690 c0 587 -2 698 -15 741 -19 64 -87 142
-152 174 l-48 24 -626 5 -627 5 -430 563 -431 563 25 36 c105 156 42 378 -130
454 -53 23 -152 33 -201 20z m145 -163 c48 -25 90 -89 90 -138 0 -14 -10 -46
-22 -70 -30 -60 -97 -95 -159 -85 -54 9 -115 64 -129 116 -26 97 50 193 155
198 12 1 41 -9 65 -21z m-1469 -1978 c25 -14 49 -62 49 -101 0 -46 -56 -99
-105 -99 -55 0 -105 52 -105 110 0 58 41 100 100 100 23 0 50 -5 61 -10z
m2930 -19 c43 -43 41 -101 -5 -147 -26 -26 -42 -34 -71 -34 -29 0 -45 8 -71
34 -38 38 -44 77 -19 126 20 38 41 49 93 50 35 0 49 -6 73 -29z"/>
<path d="M516 2339 c-19 -15 -26 -30 -26 -53 0 -56 156 -685 176 -707 20 -22
72 -25 98 -6 12 8 38 79 72 193 30 98 54 185 54 192 0 6 5 12 10 12 6 0 10 -6
10 -12 0 -7 24 -94 54 -192 34 -114 60 -185 72 -193 27 -19 78 -16 99 7 19 21
175 648 175 705 0 24 -7 39 -26 54 -30 24 -43 26 -77 10 -33 -15 -38 -27 -87
-232 -23 -98 -44 -176 -46 -174 -4 3 -104 336 -104 344 0 12 -49 43 -70 43
-21 0 -70 -31 -70 -43 0 -8 -100 -341 -104 -344 -2 -2 -23 76 -46 174 -49 205
-54 217 -87 232 -34 16 -47 14 -77 -10z"/>
<path d="M1650 2350 c-66 -14 -140 -54 -192 -103 -206 -198 -151 -526 110
-654 51 -25 67 -28 162 -28 99 0 110 2 171 32 218 108 293 364 167 573 -82
135 -262 212 -418 180z m169 -162 c44 -13 107 -71 132 -121 78 -152 -23 -336
-194 -354 -166 -17 -301 130 -267 293 31 150 174 229 329 182z"/>
<path d="M2224 2337 l-29 -25 0 -357 0 -357 24 -19 c30 -24 72 -24 102 0 22
18 24 28 29 147 l5 127 104 -137 c58 -76 113 -142 122 -147 52 -27 109 7 109
64 0 27 -17 56 -85 142 l-84 110 37 17 c185 91 190 335 8 431 -35 18 -62 22
-177 25 -133 4 -136 3 -165 -21z m271 -141 c59 -25 73 -84 31 -133 -21 -25
-31 -28 -100 -31 l-76 -4 0 91 0 91 55 0 c31 0 71 -6 90 -14z"/>
<path d="M2813 2350 c-12 -5 -26 -18 -32 -29 -7 -13 -11 -141 -11 -369 l0
-349 23 -21 c31 -29 77 -29 105 1 20 21 22 34 22 127 l0 104 123 -127 c108
-113 126 -127 155 -127 22 0 42 9 59 26 45 45 30 71 -127 229 l-139 140 144
152 c80 84 145 159 145 167 0 44 -43 86 -87 86 -9 0 -74 -57 -145 -127 l-128
-127 0 101 c0 81 -3 105 -17 121 -21 25 -60 35 -90 22z"/>
<path d="M3766 2339 l-26 -20 0 -360 c0 -346 1 -360 20 -379 30 -30 83 -27
109 6 20 26 21 38 21 365 0 358 -2 378 -47 398 -34 16 -47 14 -77 -10z"/>
<path d="M4086 2339 l-26 -20 0 -360 c0 -346 1 -360 20 -379 30 -30 83 -27
109 6 20 25 21 39 21 233 l0 206 148 -226 c82 -124 157 -229 166 -232 32 -13
66 -7 86 13 19 19 20 33 20 379 l0 360 -26 20 c-15 12 -33 21 -40 21 -22 0
-63 -22 -71 -39 -4 -9 -10 -107 -13 -219 l-5 -204 -145 221 c-164 249 -184
267 -244 220z"/>
<path d="M511 1221 c-20 -20 -21 -31 -21 -329 0 -297 1 -310 20 -327 31 -28
79 -24 107 9 21 25 23 36 23 137 l0 109 65 0 c37 0 82 7 103 15 152 64 172
273 34 370 -43 29 -47 30 -177 33 -124 3 -135 2 -154 -17z m251 -148 c22 -20
23 -61 1 -85 -12 -13 -30 -18 -70 -18 l-53 0 0 60 0 60 52 0 c34 0 58 -6 70
-17z"/>
<path d="M1001 1221 c-20 -20 -21 -31 -21 -329 0 -297 1 -310 20 -327 28 -25
76 -23 103 4 18 18 23 36 27 111 l5 90 80 -105 c88 -116 117 -135 165 -110 61
31 54 74 -28 181 l-69 88 46 30 c126 85 127 263 3 351 -43 29 -47 30 -177 33
-124 3 -135 2 -154 -17z m251 -148 c22 -20 23 -61 1 -85 -12 -13 -30 -18 -70
-18 l-53 0 0 60 0 60 52 0 c34 0 58 -6 70 -17z"/>
<path d="M1669 1217 c-143 -60 -220 -172 -221 -322 -1 -101 30 -174 101 -246
183 -182 479 -115 572 129 27 72 23 183 -9 254 -29 65 -104 143 -170 175 -79
39 -195 43 -273 10z m233 -163 c51 -36 88 -103 88 -158 0 -54 -35 -122 -83
-160 -79 -63 -217 -41 -274 45 -48 72 -43 175 10 236 69 79 178 94 259 37z"/>
<path d="M2325 1229 c-48 -14 -106 -68 -131 -123 -22 -47 -24 -64 -24 -206 0
-179 8 -217 57 -271 86 -95 212 -111 311 -39 61 44 92 116 92 212 0 64 -4 82
-19 97 -25 25 -79 35 -139 27 -59 -8 -82 -29 -82 -76 0 -41 19 -65 63 -75 32
-9 33 -14 6 -49 -25 -32 -75 -35 -110 -7 -23 18 -24 26 -27 156 -4 155 4 187
50 206 41 17 79 2 99 -38 28 -56 39 -64 82 -61 30 2 45 10 60 30 18 24 19 32
8 68 -15 52 -74 118 -126 141 -42 20 -119 23 -170 8z"/>
<path d="M2731 1221 c-20 -20 -21 -31 -21 -329 0 -297 1 -310 20 -327 28 -25
76 -23 103 4 18 18 23 36 27 111 l5 90 80 -105 c88 -116 117 -135 165 -110 61
31 54 75 -28 181 l-68 88 45 31 c126 84 128 262 3 350 -43 29 -47 30 -177 33
-124 3 -135 2 -154 -17z m251 -148 c22 -20 23 -61 1 -85 -12 -13 -30 -18 -70
-18 l-53 0 0 60 0 60 52 0 c34 0 58 -6 70 -17z"/>
<path d="M3242 1217 c-22 -23 -22 -29 -22 -325 0 -286 1 -303 19 -321 27 -27
71 -33 196 -29 98 3 108 5 126 27 24 30 24 72 0 102 -17 21 -29 24 -105 28
l-86 3 0 59 0 59 78 0 c69 0 81 3 100 23 29 31 28 72 -3 102 -21 22 -33 25
-100 25 l-75 0 0 60 0 60 79 0 c64 0 83 4 105 21 34 27 36 77 3 107 -22 20
-33 22 -158 22 -129 0 -137 -1 -157 -23z"/>
<path d="M3810 1231 c-101 -33 -160 -105 -160 -196 0 -53 16 -89 57 -126 34
-32 113 -73 171 -89 43 -11 82 -40 82 -60 0 -6 -11 -22 -25 -35 -29 -30 -70
-32 -136 -9 -60 22 -96 13 -113 -28 -30 -71 38 -128 159 -136 146 -10 248 66
263 195 3 33 -2 55 -22 98 -30 60 -77 95 -162 121 -56 17 -124 54 -124 68 0
20 15 35 44 46 35 13 57 7 117 -31 25 -16 56 -29 68 -29 29 0 71 43 71 74 0
80 -190 170 -290 137z"/>
<path d="M4319 1225 c-58 -18 -123 -87 -139 -144 -29 -110 40 -195 209 -256
85 -30 86 -31 86 -65 0 -27 -6 -37 -25 -47 -33 -17 -89 -16 -120 2 -61 35
-130 2 -130 -62 0 -35 19 -54 80 -82 51 -23 141 -28 201 -9 50 14 118 72 135
115 19 44 18 127 -2 169 -24 51 -75 89 -151 114 -120 40 -159 76 -117 111 29
24 89 15 135 -20 51 -37 88 -39 117 -8 33 35 29 82 -8 117 -71 66 -183 93
-271 65z"/>
</g>
</svg>
